<svg width="56.000000" height="56.000000" viewBox="0 0 56 56" fill="none" xmlns="http://www.w3.org/2000/svg" xmlns:xlink="http://www.w3.org/1999/xlink">
	<desc>
			Created with Pixso.
	</desc>
	<defs>
		<clipPath id="clip27_829">
			<rect id="24 / Instagram" rx="0.000000" width="23.000000" height="23.000000" transform="translate(16.500000 16.500000)" fill="white" fill-opacity="0"/>
		</clipPath>
	</defs>
	<circle id="Ellipse 2" cx="28.000000" cy="28.000000" r="28.000000" fill="#1A236E" fill-opacity="1.000000"/>
	<rect id="24 / Instagram" rx="0.000000" width="23.000000" height="23.000000" transform="translate(16.500000 16.500000)" fill="#FFFFFF" fill-opacity="0"/>
	<g clip-path="url(#clip27_829)">
		<path id="Vector" d="M28 16C24.74 16 24.33 16.01 23.05 16.07C21.77 16.13 20.9 16.33 20.14 16.62C19.35 16.93 18.68 17.34 18.01 18.01C17.34 18.68 16.93 19.35 16.62 20.14C16.33 20.9 16.13 21.77 16.07 23.05C16.01 24.33 16 24.74 16 28C16 31.25 16.01 31.66 16.07 32.94C16.13 34.22 16.33 35.09 16.62 35.85C16.93 36.64 17.34 37.31 18.01 37.98C18.68 38.65 19.35 39.06 20.14 39.37C20.9 39.66 21.77 39.86 23.05 39.92C24.33 39.98 24.74 40 28 40C31.25 40 31.66 39.98 32.94 39.92C34.22 39.86 35.09 39.66 35.85 39.37C36.64 39.06 37.31 38.65 37.98 37.98C38.65 37.31 39.06 36.65 39.37 35.85C39.66 35.09 39.86 34.22 39.92 32.94C39.98 31.66 40 31.25 40 28C40 24.74 39.98 24.33 39.92 23.05C39.86 21.77 39.66 20.9 39.37 20.14C39.06 19.35 38.65 18.68 37.98 18.01C37.31 17.34 36.65 16.93 35.85 16.62C35.09 16.33 34.22 16.13 32.94 16.07C31.66 16.01 31.25 16 28 16ZM28 18.16C31.2 18.16 31.58 18.17 32.85 18.23C34.02 18.28 34.65 18.48 35.07 18.64C35.63 18.86 36.03 19.12 36.45 19.54C36.87 19.96 37.13 20.36 37.35 20.92C37.51 21.34 37.71 21.98 37.76 23.14C37.82 24.41 37.83 24.79 37.83 28C37.83 31.2 37.82 31.58 37.76 32.85C37.7 34.02 37.5 34.65 37.34 35.07C37.11 35.63 36.86 36.03 36.44 36.45C36.02 36.87 35.62 37.13 35.06 37.35C34.64 37.51 33.99 37.71 32.82 37.76C31.55 37.82 31.18 37.83 27.97 37.83C24.75 37.83 24.38 37.82 23.11 37.76C21.93 37.7 21.29 37.5 20.87 37.34C20.3 37.11 19.91 36.86 19.49 36.44C19.07 36.02 18.8 35.62 18.59 35.06C18.43 34.64 18.23 33.99 18.17 32.82C18.13 31.56 18.11 31.18 18.11 27.98C18.11 24.78 18.13 24.39 18.17 23.12C18.23 21.95 18.43 21.31 18.59 20.89C18.8 20.31 19.07 19.93 19.49 19.5C19.91 19.08 20.3 18.81 20.87 18.61C21.29 18.44 21.92 18.25 23.09 18.18C24.37 18.14 24.74 18.12 27.95 18.12L28 18.16ZM28 21.83C24.59 21.83 21.83 24.59 21.83 28C21.83 31.4 24.59 34.16 28 34.16C31.4 34.16 34.16 31.4 34.16 28C34.16 24.59 31.4 21.83 28 21.83ZM28 32C25.79 32 24 30.21 24 28C24 25.79 25.79 24 28 24C30.21 24 32 25.79 32 28C32 30.21 30.21 32 28 32ZM35.84 21.59C35.84 22.39 35.2 23.03 34.4 23.03C33.61 23.03 32.96 22.38 32.96 21.59C32.96 20.8 33.61 20.15 34.4 20.15C35.19 20.15 35.84 20.8 35.84 21.59Z" fill="#FCDF00" fill-opacity="1.000000" fill-rule="nonzero"/>
	</g>
</svg>
