<svg width="208.180176" height="16.055664" viewBox="0 0 208.18 16.0557" fill="none" xmlns="http://www.w3.org/2000/svg" xmlns:xlink="http://www.w3.org/1999/xlink">
	<desc>
			Created with Pixso.
	</desc>
	<defs/>
	<path id="© 2020 Ремонт техники" d="M20.83 3.79L23.26 4.71Q23.74 3.48 24.62 3Q25.18 2.69 25.91 2.69C26.49 2.69 26.94 2.84 27.26 3.13C27.58 3.41 27.75 3.85 27.75 4.42Q27.75 5.03 27.31 5.7C27.03 6.14 26.73 6.5 26.43 6.76C26.14 7.01 25.79 7.3 25.37 7.63Q23.68 8.85 22.51 9.64L21.01 10.69L21.01 12.72L30.75 12.72L30.75 10.11L25.93 10.11L26.77 9.57Q27.62 9.03 28.23 8.54Q28.84 8.04 29.42 7.37C29.82 6.93 30.12 6.44 30.32 5.9C30.52 5.36 30.63 4.78 30.63 4.17Q30.63 2.69 29.92 1.71Q29.68 1.37 29.35 1.09Q29.22 0.98 29.09 0.89Q27.88 -0.01 26.02 -0.01C24.77 -0.01 23.67 0.33 22.72 1C21.78 1.66 21.15 2.59 20.83 3.79ZM32.94 2.06Q31.7 3.8 31.7 6.42C31.7 8.27 32.18 9.8 33.12 11.03C34.07 12.24 35.46 12.85 37.3 12.85C39.08 12.85 40.44 12.25 41.4 11.05Q41.53 10.88 41.65 10.71Q42.84 8.98 42.84 6.42C42.84 5.23 42.65 4.17 42.27 3.23Q42.03 2.65 41.67 2.15Q41.15 1.44 40.4 0.91C39.53 0.3 38.49 -0.01 37.26 -0.01C35.48 -0.01 34.1 0.59 33.14 1.79Q33.04 1.93 32.94 2.06ZM43.74 3.79L46.17 4.71Q46.64 3.48 47.52 3Q48.08 2.69 48.81 2.69C49.39 2.69 49.84 2.84 50.16 3.13C50.49 3.41 50.65 3.85 50.65 4.42C50.65 4.83 50.51 5.26 50.22 5.7C49.93 6.14 49.64 6.5 49.34 6.76C49.05 7.01 48.69 7.3 48.27 7.63C47.15 8.44 46.19 9.11 45.41 9.64L43.92 10.69L43.92 12.72L53.66 12.72L53.66 10.11L48.83 10.11L49.68 9.57Q50.52 9.03 51.14 8.54Q51.75 8.04 52.32 7.37C52.72 6.93 53.02 6.44 53.22 5.9C53.43 5.36 53.53 4.78 53.53 4.17C53.53 2.84 53.1 1.81 52.25 1.09Q52.13 0.98 51.99 0.89Q50.79 -0.01 48.92 -0.01Q47.63 -0.01 46.55 0.48Q46.07 0.69 45.63 1C44.68 1.66 44.05 2.59 43.74 3.79ZM55.84 2.06Q54.61 3.8 54.61 6.42C54.61 8.27 55.08 9.8 56.03 11.03C56.98 12.24 58.37 12.85 60.2 12.85C61.98 12.85 63.35 12.25 64.31 11.05C65.27 9.83 65.75 8.29 65.75 6.42C65.75 5.23 65.56 4.17 65.17 3.23Q64.93 2.65 64.57 2.15Q64.06 1.44 63.3 0.91C62.44 0.3 61.39 -0.01 60.17 -0.01C58.38 -0.01 57.01 0.59 56.05 1.79Q55.94 1.93 55.84 2.06ZM74.5 12.72L74.5 8.76L76.93 8.76C77.89 8.76 78.75 8.63 79.52 8.36C80.3 8.09 80.95 7.62 81.48 6.96Q81.61 6.8 81.71 6.63Q82.27 5.72 82.27 4.46Q82.27 2.94 81.55 1.96Q81.53 1.94 81.52 1.92Q81.06 1.32 80.47 0.93Q80.07 0.68 79.61 0.52C78.84 0.25 77.95 0.12 76.93 0.12L71.71 0.12L71.71 12.72L74.5 12.72ZM0.68 5.22Q-0.01 6.68 -0.01 8.45Q-0.01 10.81 1.03 12.54Q1.48 13.3 2.14 13.94Q2.73 14.53 3.43 14.95Q5.25 16.05 7.73 16.05Q9.75 16.05 11.37 15.25Q12.39 14.74 13.26 13.91Q14.13 13.07 14.66 12.06Q15.49 10.48 15.49 8.45Q15.49 6.38 14.63 4.77Q14.12 3.8 13.3 3Q12.59 2.31 11.76 1.84Q10.02 0.86 7.73 0.86Q6.03 0.86 4.58 1.48Q3.32 2.02 2.26 3.04Q1.24 4.02 0.68 5.22ZM34.8 8.18C34.65 7.66 34.58 7.07 34.58 6.42Q34.58 4.87 35.21 3.79C35.63 3.06 36.32 2.69 37.26 2.69Q38.19 2.69 38.8 3.14Q39.96 3.98 39.96 6.42Q39.96 8.89 38.8 9.72Q38.2 10.15 37.3 10.15C36.64 10.15 36.09 9.95 35.66 9.57C35.24 9.17 34.95 8.71 34.8 8.18ZM57.7 8.18C57.56 7.66 57.49 7.07 57.49 6.42Q57.49 4.87 58.12 3.79C58.54 3.06 59.22 2.69 60.17 2.69Q61.1 2.69 61.71 3.14Q62.87 3.98 62.87 6.42Q62.87 8.89 61.7 9.72Q61.11 10.15 60.2 10.15C59.54 10.15 59 9.95 58.57 9.57C58.15 9.17 57.86 8.71 57.7 8.18ZM74.5 2.73L77 2.73Q78.56 2.73 79.1 3.47Q79.37 3.86 79.37 4.44C79.37 5.58 78.55 6.15 76.89 6.15L74.5 6.15L74.5 2.73ZM3.01 11.09Q2.39 9.94 2.39 8.45Q2.39 7.18 2.88 6.14Q3.26 5.34 3.92 4.67Q4.6 3.99 5.42 3.61Q6.46 3.13 7.73 3.13Q9.58 3.13 10.88 3.97Q11.28 4.23 11.62 4.57Q11.96 4.89 12.22 5.27Q13.1 6.56 13.1 8.45Q13.1 10.03 12.43 11.22Q12.1 11.8 11.6 12.29C10.61 13.28 9.32 13.78 7.73 13.78C6.2 13.78 4.92 13.28 3.9 12.29Q3.36 11.74 3.01 11.09ZM91.24 10.99L89.67 9.41C89.11 10.09 88.3 10.43 87.24 10.43C86.68 10.43 86.17 10.31 85.73 10.07C85.28 9.83 85 9.47 84.88 8.98L91.33 8.98C91.42 8.3 91.47 7.8 91.47 7.46Q91.47 6.18 90.91 5.22Q90.63 4.75 90.21 4.35Q89.88 4.03 89.49 3.8Q88.44 3.16 87.01 3.16C85.55 3.16 84.38 3.61 83.48 4.49Q83.17 4.8 82.94 5.14Q82.15 6.32 82.15 8.02C82.15 9.47 82.61 10.64 83.55 11.53C84.49 12.42 85.7 12.86 87.2 12.86C88.9 12.86 90.24 12.24 91.24 10.99ZM104.7 5.63Q104.12 6.66 104.12 8.02Q104.12 9.25 104.61 10.22Q104.97 10.93 105.58 11.5C106.55 12.41 107.75 12.86 109.18 12.86C110.61 12.86 111.81 12.42 112.8 11.53C113.78 10.63 114.27 9.46 114.27 8.02Q114.27 6.7 113.72 5.68Q113.37 5.05 112.81 4.53C111.84 3.62 110.63 3.16 109.18 3.16C107.75 3.16 106.55 3.61 105.58 4.51Q105.04 5.01 104.7 5.63ZM156.73 10.99L155.17 9.41C154.6 10.09 153.79 10.43 152.74 10.43Q151.94 10.43 151.31 10.12Q151.27 10.1 151.23 10.07C150.78 9.83 150.5 9.47 150.38 8.98L156.82 8.98C156.92 8.3 156.97 7.8 156.97 7.46C156.97 6.18 156.55 5.14 155.71 4.35C154.88 3.56 153.81 3.16 152.5 3.16C151.05 3.16 149.88 3.61 148.98 4.49Q148.67 4.8 148.44 5.14Q147.64 6.32 147.64 8.02Q147.64 9.52 148.3 10.61Q148.61 11.11 149.05 11.53C149.98 12.42 151.2 12.86 152.7 12.86C154.39 12.86 155.74 12.24 156.73 10.99ZM92.63 12.72L95.24 12.72L95.24 7.88L97.87 11.03L100.34 7.93L100.34 12.72L102.95 12.72L102.95 3.36L100.81 3.36L97.85 7.1L94.94 3.36L92.63 3.36L92.63 12.72ZM121.62 12.72L124.23 12.72L124.23 3.36L121.62 3.36L121.62 6.78L118.04 6.78L118.04 3.36L115.43 3.36L115.43 12.72L118.04 12.72L118.04 9.21L121.62 9.21L121.62 12.72ZM125.12 5.79L128.3 5.79L128.3 12.72L130.91 12.72L130.91 5.79L134.14 5.79L134.14 3.36L125.12 3.36L125.12 5.79ZM138.53 5.79L141.72 5.79L141.72 12.72L144.33 12.72L144.33 5.79L147.55 5.79L147.55 3.36L138.53 3.36L138.53 5.79ZM167.28 3.36L164.13 3.36L162.12 5.9L160.12 3.36L156.9 3.36L160.46 7.91L156.72 12.72L159.85 12.72L162.06 9.86L164.21 12.72L167.45 12.72L163.7 7.9L167.28 3.36ZM174.27 12.72L176.88 12.72L176.88 3.36L174.27 3.36L174.27 6.78L170.69 6.78L170.69 3.36L168.08 3.36L168.08 12.72L170.69 12.72L170.69 9.21L174.27 9.21L174.27 12.72ZM180.72 12.72L184.91 7.63L184.91 12.72L187.52 12.72L187.52 3.36L185.31 3.36L181.11 8.45L181.11 3.36L178.5 3.36L178.5 12.72L180.72 12.72ZM189.14 12.72L191.75 12.72L191.75 9.77L192.32 9.17L195.22 12.72L198.53 12.72L194.2 7.52L198.44 3.36L195.06 3.36L191.75 6.71L191.75 3.36L189.14 3.36L189.14 12.72ZM201.37 12.72L205.57 7.63L205.57 12.72L208.18 12.72L208.18 3.36L205.96 3.36L201.77 8.45L201.77 3.36L199.16 3.36L199.16 12.72L201.37 12.72ZM11.59 10.97L10.15 9.39Q9.64 10.06 8.97 10.31Q8.55 10.47 8.08 10.47Q7.4 10.47 6.89 10.18Q6.68 10.06 6.49 9.89C6.08 9.51 5.88 9.01 5.88 8.38Q5.88 7.81 6.12 7.37Q6.26 7.12 6.47 6.91Q6.7 6.68 6.97 6.54Q7.41 6.31 7.97 6.31Q8.34 6.31 8.67 6.43Q9.25 6.63 9.71 7.19L11.41 5.72Q11.03 5.13 10.51 4.74Q9.43 3.92 7.73 3.92Q6.75 3.92 5.92 4.28Q5.17 4.6 4.55 5.21Q3.98 5.77 3.66 6.45Q3.25 7.32 3.25 8.38Q3.25 10.03 4.03 11.11Q4.25 11.42 4.53 11.68Q4.74 11.87 4.97 12.03Q6.17 12.86 7.95 12.86Q8.96 12.86 10 12.34C10.7 11.98 11.23 11.53 11.59 10.97ZM84.94 6.73C85.26 5.91 85.92 5.5 86.92 5.5C87.94 5.5 88.55 5.91 88.77 6.73L84.94 6.73ZM150.99 5.94Q151.52 5.5 152.41 5.5C153.43 5.5 154.05 5.91 154.27 6.73L150.43 6.73Q150.63 6.24 150.99 5.94ZM107.06 9.15Q106.82 8.64 106.82 8.02C106.82 7.31 107.04 6.73 107.47 6.28Q107.67 6.06 107.91 5.92Q108.45 5.59 109.18 5.59C109.89 5.59 110.46 5.82 110.91 6.28C111.35 6.73 111.57 7.31 111.57 8.02C111.57 8.74 111.35 9.32 110.91 9.77C110.47 10.21 109.9 10.43 109.18 10.43C108.51 10.43 107.94 10.21 107.49 9.75Q107.22 9.47 107.06 9.15Z" fill="#1A236E" fill-opacity="0.600000" fill-rule="evenodd"/>
</svg>
