<svg width="56.000000" height="56.000000" viewBox="0 0 56 56" fill="none" xmlns="http://www.w3.org/2000/svg" xmlns:xlink="http://www.w3.org/1999/xlink">
	<desc>
			Created with Pixso.
	</desc>
	<defs>
		<clipPath id="clip27_833">
			<rect id="24 / Twitter" rx="0.000000" width="23.000000" height="23.000000" transform="translate(16.500000 16.500000)" fill="white" fill-opacity="0"/>
		</clipPath>
	</defs>
	<circle id="Ellipse 2" cx="28.000000" cy="28.000000" r="28.000000" fill="#1A236E" fill-opacity="1.000000"/>
	<rect id="24 / Twitter" rx="0.000000" width="23.000000" height="23.000000" transform="translate(16.500000 16.500000)" fill="#FFFFFF" fill-opacity="0"/>
	<g clip-path="url(#clip27_833)">
		<path id="Vector" d="M39.95 20.56C39.06 20.95 38.12 21.22 37.12 21.34C38.14 20.73 38.92 19.77 39.29 18.62C38.34 19.17 37.28 19.58 36.16 19.8C35.26 18.84 33.99 18.24 32.57 18.24C29.85 18.24 27.65 20.44 27.65 23.16C27.65 23.55 27.69 23.92 27.78 24.28C23.69 24.09 20.06 22.12 17.64 19.16C17.21 19.88 16.97 20.72 16.97 21.63C16.97 23.34 17.84 24.84 19.16 25.73C18.35 25.7 17.59 25.48 16.93 25.11L16.93 25.17C16.93 27.56 18.62 29.55 20.87 30C20.46 30.11 20.03 30.17 19.58 30.17C19.27 30.17 18.96 30.14 18.66 30.08C19.29 32.04 21.11 33.46 23.27 33.5C21.59 34.82 19.46 35.61 17.16 35.61C16.77 35.61 16.39 35.58 16 35.54C18.18 36.93 20.76 37.75 23.55 37.75C32.61 37.75 37.55 30.25 37.55 23.76C37.55 23.55 37.55 23.34 37.54 23.13C38.5 22.44 39.34 21.57 40 20.58L39.95 20.56Z" fill="#FCDF00" fill-opacity="1.000000" fill-rule="nonzero"/>
	</g>
</svg>
