<svg width="56.000000" height="56.000000" viewBox="0 0 56 56" fill="none" xmlns="http://www.w3.org/2000/svg" xmlns:xlink="http://www.w3.org/1999/xlink">
	<desc>
			Created with Pixso.
	</desc>
	<defs>
		<clipPath id="clip27_837">
			<rect id="24 / VK" rx="0.000000" width="23.000000" height="23.000000" transform="translate(16.500000 16.500000)" fill="white" fill-opacity="0"/>
		</clipPath>
	</defs>
	<circle id="Ellipse 2" cx="28.000000" cy="28.000000" r="28.000000" fill="#1A236E" fill-opacity="1.000000"/>
	<rect id="24 / VK" rx="0.000000" width="23.000000" height="23.000000" transform="translate(16.500000 16.500000)" fill="#FFFFFF" fill-opacity="0"/>
	<g clip-path="url(#clip27_837)">
		<path id="Vector" d="M39.05 35.3L36.43 35.3C35.44 35.3 35.13 34.51 33.35 32.7C31.8 31.2 31.11 31 30.73 31C30.2 31 30.04 31.15 30.04 31.89L30.04 34.25C30.04 34.89 29.84 35.27 28.16 35.27C25.39 35.27 22.31 33.59 20.14 30.46C16.89 25.88 16 22.45 16 21.73C16 21.35 16.15 21 16.89 21L19.51 21C20.17 21 20.42 21.3 20.68 22.01C21.97 25.75 24.14 29.04 25.03 29.04C25.36 29.04 25.51 28.88 25.51 28.05L25.51 24.18C25.41 22.39 24.47 22.24 24.47 21.61C24.47 21.3 24.72 21 25.13 21L29.25 21C29.81 21 30.02 21.3 30.02 21.96L30.02 27.18C30.02 27.74 30.27 27.94 30.42 27.94C30.75 27.94 31.04 27.74 31.64 27.13C33.53 25.02 34.88 21.76 34.88 21.76C35.06 21.38 35.36 21.02 36.02 21.02L38.64 21.02C39.43 21.02 39.61 21.43 39.43 21.99C39.1 23.51 35.9 28.04 35.9 28.04C35.62 28.5 35.51 28.7 35.9 29.22C36.17 29.6 37.09 30.39 37.7 31.1C38.82 32.37 39.69 33.44 39.92 34.18C40.17 34.91 39.79 35.3 39.05 35.3L39.05 35.3Z" fill="#FCDF00" fill-opacity="1.000000" fill-rule="nonzero"/>
	</g>
</svg>
