<svg width="216.000000" height="32.000000" viewBox="0 0 216 32" fill="none" xmlns="http://www.w3.org/2000/svg" xmlns:xlink="http://www.w3.org/1999/xlink">
	<desc>
			Created with Pixso.
	</desc>
	<defs>
		<clipPath id="clip2_525">
			<rect id="Frame 18" rx="0.000000" width="215.000000" height="31.000000" transform="translate(0.500000 0.500000)" fill="white" fill-opacity="0"/>
		</clipPath>
	</defs>
	<g clip-path="url(#clip2_525)">
		<path id="Ремонт техники" d="M6.16 25.77L6.16 19.61L9.93 19.61Q12.18 19.61 13.97 18.99C15.18 18.56 16.2 17.83 17.02 16.81C17.84 15.76 18.25 14.46 18.25 12.92Q18.25 10.56 17.13 9.03Q17.1 9 17.08 8.97Q16.37 8.03 15.45 7.43Q14.83 7.03 14.11 6.78Q12.32 6.17 9.93 6.17L1.82 6.17L1.82 25.77L6.16 25.77ZM6.16 10.23L10.05 10.23Q12.48 10.23 13.31 11.38Q13.74 11.98 13.74 12.89Q13.74 13.74 13.34 14.32Q12.5 15.55 9.88 15.55L6.16 15.55L6.16 10.23ZM32.2 23.08L29.76 20.62Q29.41 21.04 28.97 21.36Q27.78 22.21 25.98 22.21Q24.74 22.21 23.75 21.72Q23.69 21.68 23.63 21.65C22.94 21.28 22.5 20.71 22.31 19.94L32.34 19.94C32.48 18.9 32.56 18.11 32.56 17.59C32.56 15.59 31.91 13.98 30.6 12.75C29.31 11.52 27.65 10.9 25.62 10.9Q23.13 10.9 21.34 12.01Q20.69 12.42 20.13 12.97Q19.65 13.44 19.29 13.98Q18.06 15.8 18.06 18.46Q18.06 20.78 19.08 22.49Q19.55 23.27 20.24 23.92Q20.75 24.41 21.34 24.78Q23.25 25.99 25.92 25.99Q28.2 25.99 29.94 25.02Q31.21 24.31 32.2 23.08ZM53.13 14.73Q52.23 16.35 52.23 18.46C52.23 20.64 52.99 22.44 54.5 23.86C56.01 25.28 57.88 25.99 60.1 25.99C62.32 25.99 64.2 25.3 65.73 23.92Q66.61 23.12 67.15 22.13Q68.03 20.53 68.03 18.46C68.03 16.24 67.27 14.43 65.76 13.03C64.25 11.61 62.36 10.9 60.1 10.9C57.88 10.9 56.01 11.6 54.5 13Q53.66 13.78 53.13 14.73ZM134.08 23.08L131.64 20.62C130.76 21.68 129.5 22.21 127.86 22.21C126.98 22.21 126.2 22.02 125.51 21.65C124.82 21.28 124.38 20.71 124.19 19.94L134.22 19.94C134.37 18.9 134.44 18.11 134.44 17.59C134.44 15.59 133.79 13.98 132.48 12.75C131.19 11.52 129.53 10.9 127.5 10.9C125.24 10.9 123.41 11.59 122.01 12.97C120.63 14.33 119.94 16.16 119.94 18.46C119.94 20.72 120.67 22.54 122.12 23.92C123.58 25.3 125.47 25.99 127.81 25.99C130.44 25.99 132.53 25.02 134.08 23.08ZM34.37 25.77L38.43 25.77L38.43 18.24L42.52 23.14L46.35 18.32L46.35 25.77L50.41 25.77L50.41 11.21L47.08 11.21L42.49 17.03L37.95 11.21L34.37 11.21L34.37 25.77ZM79.47 25.77L83.53 25.77L83.53 11.21L79.47 11.21L79.47 16.53L73.89 16.53L73.89 11.21L69.83 11.21L69.83 25.77L73.89 25.77L73.89 20.31L79.47 20.31L79.47 25.77ZM84.9 14.99L89.86 14.99L89.86 25.77L93.92 25.77L93.92 14.99L98.93 14.99L98.93 11.21L84.9 11.21L84.9 14.99ZM105.76 14.99L110.72 14.99L110.72 25.77L114.78 25.77L114.78 14.99L119.79 14.99L119.79 11.21L105.76 11.21L105.76 14.99ZM150.49 11.21L145.59 11.21L142.46 15.16L139.35 11.21L134.34 11.21L139.88 18.29L134.06 25.77L138.93 25.77L142.37 21.32L145.7 25.77L150.74 25.77L144.92 18.26L150.49 11.21ZM161.36 25.77L165.42 25.77L165.42 11.21L161.36 11.21L161.36 16.53L155.79 16.53L155.79 11.21L151.73 11.21L151.73 25.77L155.79 25.77L155.79 20.31L161.36 20.31L161.36 25.77ZM171.39 25.77L177.91 17.84L177.91 25.77L181.97 25.77L181.97 11.21L178.53 11.21L172 19.13L172 11.21L167.94 11.21L167.94 25.77L171.39 25.77ZM184.49 25.77L188.55 25.77L188.55 21.18L189.44 20.25L193.95 25.77L199.1 25.77L192.35 17.68L198.96 11.21L193.7 11.21L188.55 16.42L188.55 11.21L184.49 11.21L184.49 25.77ZM203.52 25.77L210.04 17.84L210.04 25.77L214.1 25.77L214.1 11.21L210.66 11.21L204.13 19.13L204.13 11.21L200.07 11.21L200.07 25.77L203.52 25.77ZM22.4 16.44C22.9 15.17 23.93 14.54 25.48 14.54Q26.96 14.54 27.72 15.28Q28.17 15.73 28.36 16.44L22.4 16.44ZM124.28 16.44C124.78 15.17 125.81 14.54 127.36 14.54C128.94 14.54 129.91 15.17 130.24 16.44L124.28 16.44ZM57.47 21.15C56.78 20.42 56.43 19.52 56.43 18.46C56.43 17.36 56.77 16.45 57.44 15.74C58.11 15.03 59 14.68 60.1 14.68Q61.21 14.68 62.05 15.16Q62.45 15.4 62.79 15.74Q63.12 16.08 63.34 16.47Q63.83 17.33 63.83 18.46C63.83 19.58 63.48 20.48 62.79 21.18Q62.53 21.44 62.22 21.64Q61.35 22.21 60.1 22.21C59.06 22.21 58.18 21.86 57.47 21.15Z" fill="#1A236E" fill-opacity="1.000000" fill-rule="evenodd"/>
	</g>
</svg>
